<svg xmlns="http://www.w3.org/2000/svg" width="16" height="16" viewBox="0 0 16 16" fill="none">
    <path fill-rule="evenodd" clip-rule="evenodd" d="M4.66669 0.666656H11.3334C11.8638 0.666656 12.3725 0.87737 12.7476 1.25244C13.1226 1.62752 13.3334 2.13622 13.3334 2.66666V13.3333C13.3334 13.8638 13.1226 14.3725 12.7476 14.7475C12.3725 15.1226 11.8638 15.3333 11.3334 15.3333H4.66669C4.13625 15.3333 3.62755 15.1226 3.25247 14.7475C2.8774 14.3725 2.66669 13.8638 2.66669 13.3333V2.66666C2.66669 2.13622 2.8774 1.62752 3.25247 1.25244C3.62755 0.87737 4.13625 0.666656 4.66669 0.666656ZM4.66669 1.99999C4.48988 1.99999 4.32031 2.07023 4.19528 2.19525C4.07026 2.32028 4.00002 2.48985 4.00002 2.66666V13.3333C4.00002 13.5101 4.07026 13.6797 4.19528 13.8047C4.32031 13.9298 4.48988 14 4.66669 14H11.3334C11.5102 14 11.6797 13.9298 11.8048 13.8047C11.9298 13.6797 12 13.5101 12 13.3333V2.66666C12 2.48985 11.9298 2.32028 11.8048 2.19525C11.6797 2.07023 11.5102 1.99999 11.3334 1.99999H4.66669ZM8.00002 13.3333C8.35364 13.3333 8.69278 13.1928 8.94283 12.9428C9.19288 12.6928 9.33335 12.3536 9.33335 12C9.33335 11.6464 9.19288 11.3072 8.94283 11.0572C8.69278 10.8071 8.35364 10.6667 8.00002 10.6667C7.6464 10.6667 7.30726 10.8071 7.05721 11.0572C6.80716 11.3072 6.66669 11.6464 6.66669 12C6.66669 12.3536 6.80716 12.6928 7.05721 12.9428C7.30726 13.1928 7.6464 13.3333 8.00002 13.3333Z" fill="black"/>
</svg>