<svg xmlns="http://www.w3.org/2000/svg" width="18" height="24" viewBox="0 0 18 24" fill="none">
    <path d="M17.8529 5.14589L12.8541 0.147094C12.8077 0.100407 12.7526 0.063371 12.6918 0.0381241C12.631 0.0128773 12.5658 -8e-05 12.5 3.71613e-07H2.00002C0.897469 3.71613e-07 0 0.896953 0 2.00002V22C0 23.103 0.897469 24 2.00002 24H16C17.1025 24 18 23.103 18 22V5.49998C18.0001 5.43417 17.9871 5.369 17.9619 5.30822C17.9366 5.24745 17.8996 5.19227 17.8529 5.14589ZM3.50002 5.00002H9.50002C9.56569 4.99997 9.63073 5.01288 9.69141 5.03799C9.7521 5.0631 9.80724 5.09993 9.85368 5.14637C9.90012 5.19281 9.93694 5.24795 9.96206 5.30863C9.98717 5.36932 10.0001 5.43436 10 5.50003C10.0001 5.56571 9.98717 5.63075 9.96206 5.69143C9.93694 5.75211 9.90012 5.80725 9.85368 5.85369C9.80724 5.90013 9.7521 5.93696 9.69141 5.96207C9.63073 5.98719 9.56569 6.00009 9.50002 6.00005H3.50002C3.43434 6.00009 3.3693 5.98719 3.30862 5.96207C3.24793 5.93696 3.19279 5.90013 3.14635 5.85369C3.09992 5.80725 3.06309 5.75211 3.03797 5.69143C3.01286 5.63075 2.99996 5.56571 3 5.50003C2.99996 5.43436 3.01286 5.36932 3.03797 5.30863C3.06309 5.24795 3.09992 5.19281 3.14635 5.14637C3.19279 5.09993 3.24793 5.0631 3.30862 5.03799C3.3693 5.01288 3.43434 4.99997 3.50002 5.00002ZM10.8506 18.8565C8.67384 21 8.16698 21 8.00002 21C7.37892 21 7.15627 20.2871 6.92578 19.5234C6.57713 20.231 6.17578 21 5.49998 21C5.15231 21 4.7363 20.771 4.3447 20.4224C4.15819 20.6079 3.97261 20.7705 3.79978 20.8999C3.74724 20.9394 3.68745 20.9681 3.62381 20.9844C3.56018 21.0007 3.49395 21.0043 3.42892 20.995C3.36389 20.9857 3.30132 20.9637 3.24481 20.9302C3.1883 20.8967 3.13894 20.8524 3.09956 20.7998C2.93452 20.5791 2.97942 20.2656 3.20016 20.1001C3.35836 19.9809 3.51952 19.8374 3.67772 19.6792C3.28027 19.1309 3 18.5059 3 18C3 16.8589 3.91017 16 4.5 16C5.08008 16 6 16.4072 6 17.5C6 18.1367 5.55759 18.9604 5.00681 19.6718C5.21091 19.8623 5.39648 19.9887 5.50486 20C5.6152 19.9223 5.91891 19.3042 6.06539 19.0073C6.36422 18.4008 6.56147 18 6.99998 18C7.5127 18 7.67184 18.5317 7.875 19.205C7.93458 19.4047 8.0332 19.7338 8.12011 19.9306C8.48728 19.6825 9.41405 18.8671 10.1494 18.1435C10.3467 17.9506 10.6631 17.9516 10.8564 18.1493C11.0498 18.3462 11.0479 18.6626 10.8506 18.8565ZM14.5 15H7.5C7.43432 15 7.36929 14.9871 7.3086 14.962C7.24792 14.9369 7.19278 14.9001 7.14634 14.8536C7.0999 14.8072 7.06307 14.7521 7.03796 14.6914C7.01285 14.6307 6.99994 14.5657 6.99998 14.5C6.99994 14.4343 7.01285 14.3693 7.03796 14.3086C7.06307 14.2479 7.0999 14.1928 7.14634 14.1463C7.19278 14.0999 7.24792 14.0631 7.3086 14.0379C7.36929 14.0128 7.43432 13.9999 7.5 14H14.5C14.5657 13.9999 14.6307 14.0128 14.6914 14.0379C14.7521 14.0631 14.8072 14.0999 14.8536 14.1463C14.9001 14.1928 14.9369 14.2479 14.962 14.3086C14.9871 14.3693 15 14.4343 15 14.5C15 14.5657 14.9871 14.6307 14.962 14.6914C14.9369 14.7521 14.9001 14.8072 14.8536 14.8536C14.8072 14.9001 14.7521 14.9369 14.6914 14.962C14.6307 14.9871 14.5657 15 14.5 15ZM14.5 12H3.50002C3.43434 12 3.3693 11.9871 3.30862 11.962C3.24793 11.9369 3.19279 11.9001 3.14635 11.8536C3.09992 11.8072 3.06309 11.7521 3.03797 11.6914C3.01286 11.6307 2.99996 11.5657 3 11.5C2.99996 11.4343 3.01286 11.3693 3.03797 11.3086C3.06309 11.2479 3.09992 11.1928 3.14635 11.1463C3.19279 11.0999 3.24793 11.0631 3.30862 11.0379C3.3693 11.0128 3.43434 10.9999 3.50002 11H14.5C14.5657 10.9999 14.6307 11.0128 14.6914 11.0379C14.7521 11.0631 14.8073 11.0999 14.8537 11.1463C14.9001 11.1928 14.937 11.2479 14.9621 11.3086C14.9872 11.3693 15.0001 11.4343 15 11.5C15.0001 11.5657 14.9872 11.6307 14.962 11.6914C14.9369 11.7521 14.9001 11.8072 14.8536 11.8536C14.8072 11.9001 14.7521 11.9369 14.6914 11.962C14.6307 11.9871 14.5657 12 14.5 12ZM14.5 9H3.50002C3.43434 9.00004 3.3693 8.98714 3.30862 8.96203C3.24793 8.93691 3.19279 8.90009 3.14635 8.85365C3.09992 8.80721 3.06309 8.75207 3.03797 8.69138C3.01286 8.6307 2.99996 8.56566 3 8.49998C2.99996 8.43431 3.01286 8.36927 3.03797 8.30859C3.06309 8.2479 3.09992 8.19276 3.14635 8.14632C3.19279 8.09988 3.24793 8.06306 3.30862 8.03794C3.3693 8.01283 3.43434 7.99993 3.50002 7.99997H14.5C14.5657 7.99993 14.6307 8.01283 14.6914 8.03794C14.7521 8.06306 14.8073 8.09988 14.8537 8.14632C14.9001 8.19276 14.937 8.2479 14.9621 8.30859C14.9872 8.36927 15.0001 8.43431 15 8.49998C15.0001 8.56566 14.9872 8.6307 14.962 8.69138C14.9369 8.75206 14.9001 8.8072 14.8536 8.85363C14.8072 8.90007 14.7521 8.9369 14.6914 8.96202C14.6307 8.98713 14.5657 9.00004 14.5 9ZM14 5.00002C13.4482 5.00002 13 4.55128 13 4.00003V1.70705L16.293 5.00002H14Z" fill="#7A869A"/>
    <path d="M4.50002 17C4.44728 17.0332 4 17.3901 4 18C4 18.2558 4.14452 18.5772 4.34767 18.8867C4.7305 18.3569 5.00003 17.8189 5.00003 17.5C5.00003 17.0239 4.58303 17 4.50002 17Z" fill="#7A869A"/>
</svg>