<svg xmlns="http://www.w3.org/2000/svg" width="41" height="40" viewBox="0 0 41 40" fill="none">
    <path d="M20.5993 39.1668C31.1847 39.1668 39.766 30.5856 39.766 20.0002C39.766 9.41471 31.1847 0.833496 20.5993 0.833496C10.0138 0.833496 1.43262 9.41471 1.43262 20.0002C1.43262 30.5856 10.0138 39.1668 20.5993 39.1668Z" fill="#FFCE52"/>
    <path d="M20.599 3.33348C30.724 3.33348 38.9323 10.4226 38.9323 19.1668H39.7448C39.5151 14.2435 37.3976 9.59796 33.8322 6.19507C30.2668 2.79219 25.5276 0.893555 20.599 0.893555C15.6703 0.893555 10.9311 2.79219 7.36571 6.19507C3.80034 9.59796 1.68286 14.2435 1.45312 19.1668H2.26562C2.26562 10.4226 10.474 3.33348 20.599 3.33348Z" fill="#FFE369"/>
    <path d="M38.9326 19.167C38.9326 27.9112 30.7243 35.0003 20.5993 35.0003C10.4743 35.0003 2.26595 27.9112 2.26595 19.167H1.45345C1.44178 19.4437 1.43262 19.7212 1.43262 20.0003C1.43262 25.0836 3.45196 29.9588 7.0464 33.5532C10.6409 37.1477 15.516 39.167 20.5993 39.167C25.6826 39.167 30.5577 37.1477 34.1522 33.5532C37.7466 29.9588 39.766 25.0836 39.766 20.0003C39.766 19.7212 39.7568 19.4437 39.7451 19.167H38.9326Z" fill="#FFB32B"/>
    <path d="M31.6936 6.93857C31.962 6.67009 31.8768 6.14957 31.5032 5.77597C31.1296 5.40237 30.6091 5.31716 30.3406 5.58564C30.0721 5.85413 30.1574 6.37464 30.531 6.74824C30.9046 7.12184 31.4251 7.20706 31.6936 6.93857Z" fill="#F6FAFD"/>
    <path d="M26.1444 3.68066C26.2788 3.54626 26.2364 3.28587 26.0496 3.09907C25.8628 2.91227 25.6024 2.86979 25.468 3.0042C25.3336 3.1386 25.376 3.39899 25.5628 3.58579C25.7496 3.77259 26.01 3.81507 26.1444 3.68066Z" fill="#F6FAFD"/>
    <path d="M29.8717 5.94668C30.4087 5.40971 30.238 4.36842 29.4904 3.62089C28.7429 2.87336 27.7016 2.70267 27.1647 3.23964C26.6277 3.77661 26.7984 4.81791 27.5459 5.56543C28.2934 6.31296 29.3347 6.48365 29.8717 5.94668Z" fill="#F6FAFD"/>
    <path d="M30.5996 20C33.361 20 35.5996 17.7614 35.5996 15C35.5996 12.2386 33.361 10 30.5996 10C27.8382 10 25.5996 12.2386 25.5996 15C25.5996 17.7614 27.8382 20 30.5996 20Z" fill="url(#paint0_radial_3934_82954)"/>
    <path d="M10.5996 20C13.361 20 15.5996 17.7614 15.5996 15C15.5996 12.2386 13.361 10 10.5996 10C7.83819 10 5.59961 12.2386 5.59961 15C5.59961 17.7614 7.83819 20 10.5996 20Z" fill="url(#paint1_radial_3934_82954)"/>
    <path d="M20.5993 23.3337C16.9235 23.3337 13.9326 20.717 13.9326 17.5003H15.5993C15.5993 19.7978 17.8418 21.667 20.5993 21.667C23.3568 21.667 25.5993 19.7978 25.5993 17.5003H27.266C27.266 20.717 24.2751 23.3337 20.5993 23.3337ZM32.266 10.8337H30.5993C30.5993 10.1706 30.3359 9.53473 29.8671 9.06589C29.3982 8.59705 28.7623 8.33366 28.0993 8.33366C27.4362 8.33366 26.8004 8.59705 26.3315 9.06589C25.8627 9.53473 25.5993 10.1706 25.5993 10.8337H23.9326C23.9326 9.72859 24.3716 8.66878 25.153 7.88738C25.9344 7.10598 26.9942 6.66699 28.0993 6.66699C29.2044 6.66699 30.2642 7.10598 31.0456 7.88738C31.827 8.66878 32.266 9.72859 32.266 10.8337ZM17.266 10.8337H15.5993C15.5993 10.1706 15.3359 9.53473 14.8671 9.06589C14.3982 8.59705 13.7623 8.33366 13.0993 8.33366C12.4362 8.33366 11.8004 8.59705 11.3315 9.06589C10.8627 9.53473 10.5993 10.1706 10.5993 10.8337H8.93262C8.93262 9.72859 9.3716 8.66878 10.153 7.88738C10.9344 7.10598 11.9942 6.66699 13.0993 6.66699C14.2044 6.66699 15.2642 7.10598 16.0456 7.88738C16.827 8.66878 17.266 9.72859 17.266 10.8337Z" fill="#273941"/>
    <defs>
        <radialGradient id="paint0_radial_3934_82954" cx="0" cy="0" r="1" gradientUnits="userSpaceOnUse" gradientTransform="translate(30.5996 15) scale(5)">
            <stop stop-color="#FF568D"/>
            <stop offset="0.454" stop-color="#FF9678"/>
            <stop offset="0.817" stop-color="#FFC26A"/>
            <stop offset="1" stop-color="#FFD364"/>
        </radialGradient>
        <radialGradient id="paint1_radial_3934_82954" cx="0" cy="0" r="1" gradientUnits="userSpaceOnUse" gradientTransform="translate(10.5996 15) scale(5)">
            <stop stop-color="#FF568D"/>
            <stop offset="0.454" stop-color="#FF9678"/>
            <stop offset="0.817" stop-color="#FFC26A"/>
            <stop offset="1" stop-color="#FFD364"/>
        </radialGradient>
    </defs>
</svg>